<svg xmlns="http://www.w3.org/2000/svg" data-name="Layer 1" viewBox="0 0 64 80" x="0px" y="0px">
    <title>astronaut</title>
    <path d="M11.37,33.51a2.45,2.45,0,0,1-.18-.81Q11.27,33.1,11.37,33.51Z" />
    <path d="M11.37,33.51a2.45,2.45,0,0,1-.18-.81Q11.27,33.1,11.37,33.51Z" />
    <path
        d="M53.56,24.64A2.87,2.87,0,0,0,53,23.8,2.94,2.94,0,0,0,50.92,23a2.84,2.84,0,0,0-.72.09,19.78,19.78,0,0,0-.93-2.85,18.54,18.54,0,0,0-17-11.81A18.24,18.24,0,0,0,17,16.87V12.82a3,3,0,1,0-2,0v8A18.8,18.8,0,0,0,14.34,23a1.14,1.14,0,0,0-.26,0,2.92,2.92,0,0,0-2.91,2.91v6.61a1.48,1.48,0,0,0,0,.21v0q.08.4.18.81l0,.09a2.92,2.92,0,0,0,2.68,1.78,2.71,2.71,0,0,0,.91-.15h0c0,.12.08.24.13.36l0,.07c.17.44.36.86.57,1.28s.34.69.53,1c.3.55.63,1.08,1,1.6a4.5,4.5,0,0,0-1.6,2.85,6.58,6.58,0,0,0-.12,1.29,4.89,4.89,0,0,0,0,.54c.41,3.46,4.68,6.41,10.76,7.6a31.7,31.7,0,0,0,5.93.55,30.75,30.75,0,0,0,5.39-.46c6.32-1.1,10.8-4.08,11.28-7.6a3.35,3.35,0,0,0,0-.63,6.58,6.58,0,0,0-.12-1.29,4.59,4.59,0,0,0-1.6-2.85,17.71,17.71,0,0,0,1.07-1.77c.16-.27.3-.55.44-.84a17.5,17.5,0,0,0,.79-1.89,3,3,0,0,0,1.36.33,2.86,2.86,0,0,0,1.94-.75,2.9,2.9,0,0,0,1-2.16V25.86A2.94,2.94,0,0,0,53.56,24.64ZM45.68,35.19c-.11.2-.22.39-.34.58a17,17,0,0,1-3.27,3.88h0a15.16,15.16,0,0,1-9.43,3.89H32a15.28,15.28,0,0,1-10.43-4.27A16.65,16.65,0,0,1,18.81,36a.94.94,0,0,1-.12-.18c-.27-.44-.52-.89-.75-1.34l0-.06A15.94,15.94,0,0,1,17,32a12.29,12.29,0,0,1-.49-3.35,7,7,0,0,1,.27-1.93h0a6.12,6.12,0,0,1,.22-.69,9.23,9.23,0,0,1,2.15-3.24C21.92,20,26.64,18.16,32,18.16c5.79,0,10.85,2.16,13.5,5.35a8.08,8.08,0,0,1,2,5.17A13.59,13.59,0,0,1,45.68,35.19Z" />
    <path d="M29,34.88a1,1,0,0,1-.71-1.71l10.5-10.5a1,1,0,0,1,1.42,0,1,1,0,0,1,0,1.41l-10.5,10.5A1,1,0,0,1,29,34.88Z" />
    <path d="M32.5,38.38a1,1,0,0,1-.71-1.71l7-7a1,1,0,0,1,1.42,0,1,1,0,0,1,0,1.41l-7,7A1,1,0,0,1,32.5,38.38Z" />
</svg>