<svg xmlns="http://www.w3.org/2000/svg" xmlns:xlink="http://www.w3.org/1999/xlink" version="1.1" x="0px" y="0px"
    viewBox="0 0 64 80" enable-background="new 0 0 64 64" xml:space="preserve">
    <path
        d="M54.831,49.171c1.56,1.561,1.56,4.1,0,5.66c-1.561,1.56-4.1,1.56-5.66,0l-18.63-18.63l0.77-4.891l4.891-0.77L54.831,49.171z  " />
    <path
        d="M35.361,22.781c0.149,0.979-0.521,1.899-1.5,2.05l-7.79,1.24l-1.24,7.79c-0.08,0.569-0.44,1.06-0.96,1.319  c-0.88,0.45-1.97,0.101-2.42-0.779l-3.58-7.03l-7.79,1.229c-0.57,0.091-1.15-0.1-1.55-0.5c-0.71-0.71-0.71-1.85,0-2.55l5.569-5.58  l-3.58-7.029c-0.26-0.511-0.26-1.12,0-1.631c0.45-0.89,1.54-1.239,2.421-0.79l7.029,3.58l5.58-5.569  c0.41-0.41,0.99-0.601,1.55-0.511c0.99,0.16,1.66,1.08,1.5,2.061l-1.229,7.79l7.03,3.58C34.911,21.711,35.271,22.211,35.361,22.781z " />
</svg>