<?xml version="1.0" encoding="utf-8"?>
<!-- Svg Vector Icons : http://www.onlinewebfonts.com/icon -->
<!DOCTYPE svg PUBLIC "-//W3C//DTD SVG 1.1//EN" "http://www.w3.org/Graphics/SVG/1.1/DTD/svg11.dtd">
<svg version="1.1" xmlns="http://www.w3.org/2000/svg" xmlns:xlink="http://www.w3.org/1999/xlink" x="0px" y="0px"
    viewBox="0 0 256 256" enable-background="new 0 0 256 256" xml:space="preserve">
    <metadata> Svg Vector Icons : http://www.onlinewebfonts.com/icon </metadata>
    <defs>
        <linearGradient id="gradient" x1="0%" y1="0%" x2="100%" y2="0%">
            <stop offset="0%" style="stop-color:#7a2fc1;stop-opacity:1" />
            <stop offset="100%" style="stop-color:#9370d8;stop-opacity:1" />
        </linearGradient>
    </defs>
    <g>
        <g>
            <g>
                <g>
                    <path fill="url(#gradient)" d="M143.9 70.7a22 22 0 1 0 44 0a22 22 0 1 0 -44 0z" />
                    <path fill="url(#gradient)" d="M38.2 127.7a11 11 0 1 0 22 0a11 11 0 1 0 -22 0z" />
                    <path fill="url(#gradient)"
                        d="M29.9,200.6c14.8,0,37.2-3.8,58.8-8.8c10,9.6,23.6,15.5,38.5,15.5c27.6,0,50.5-20.1,55-46.4c38.7-15.9,68.4-32.5,63-49.7c0-0.1-0.1-0.2-0.1-0.3c-1.8-4.4-7.3-6.3-18-6.3c-18.8,0-48.1,6.1-49.4,6.4c-2,0.4-3.4,2.3-3.2,4.4c0.2,2,1.9,3.6,3.9,3.7c13,0.3,24.2,3.1,25.6,5.4c-1.3,3-10.3,8.4-22.5,14.4c-5.7-24.8-27.9-43.3-54.4-43.3c-30.9,0-55.9,25-55.9,55.9c0,8.4,1.9,16.3,5.2,23.5c-6.2,1.2-11.9,1.9-16.5,1.9c-4.3,0-6.6-0.7-7.7-1.2c0.3-1.3,2.2-5.9,14.6-14.5c1.1-0.7,1.9-2,1.9-3.4c0-2.2-1.8-4.1-3.9-4.1c0,0-0.1,0-0.1,0c-0.1,0-0.3,0-0.4,0c-0.2,0-0.4,0.1-0.7,0.1c-4.6,1.1-41.6,10.6-51.3,26.8c-2.4,4-3.1,8-2,12.2C12.3,199.8,22.5,200.6,29.9,200.6z" />
                </g>
            </g>
            <g></g>
            <g></g>
            <g></g>
            <g></g>
            <g></g>
            <g></g>
            <g></g>
            <g></g>
            <g></g>
            <g></g>
            <g></g>
            <g></g>
            <g></g>
            <g></g>
            <g></g>
        </g>
    </g>
</svg>