<svg xmlns="http://www.w3.org/2000/svg" xmlns:xlink="http://www.w3.org/1999/xlink" version="1.1" x="0px" y="0px"
    viewBox="0 0 96 120" enable-background="new 0 0 96 96" xml:space="preserve">
    <path
        d="M50.634,27.863L37.043,24.9c-1.108-0.242-2.542-1.334-3.068-2.336l-6.473-12.313c-0.54-1.028-1.153-1.243-1.573-1.243  c-0.343,0-1.176,0.161-1.504,1.657L21.462,24.26c-0.241,1.105-1.333,2.539-2.336,3.066L6.812,33.799  c-1.191,0.627-1.282,1.356-1.23,1.735c0.052,0.378,0.335,1.056,1.649,1.339l13.59,2.965c1.108,0.242,2.543,1.334,3.069,2.336  l6.471,12.312c0.54,1.028,1.153,1.244,1.573,1.244c0.343,0,1.177-0.161,1.505-1.658l2.963-13.593  c0.24-1.106,1.332-2.539,2.336-3.066l12.313-6.474c1.191-0.625,1.283-1.354,1.231-1.732C52.231,28.827,51.949,28.148,50.634,27.863z  " />
    <path
        d="M90.115,33.924l-8.25-2.682c-0.595-0.193-1.35-0.897-1.584-1.478l-3.252-8.044c-0.369-0.912-0.933-1.049-1.235-1.049  c-0.322,0-0.91,0.147-1.23,1.136l-2.683,8.25c-0.192,0.594-0.897,1.35-1.477,1.585l-8.046,3.251  c-0.938,0.383-1.058,0.963-1.046,1.274s0.175,0.88,1.136,1.19l8.25,2.683c0.596,0.194,1.351,0.899,1.584,1.479l3.251,8.041  c0.37,0.913,0.933,1.049,1.235,1.049c0.321,0,0.909-0.147,1.231-1.135l2.683-8.25c0.193-0.594,0.897-1.349,1.477-1.584l8.042-3.253  c0.938-0.379,1.059-0.959,1.048-1.271C91.238,34.806,91.077,34.236,90.115,33.924z" />
    <path
        d="M49.077,61.227l-9.21,4.841c-0.993,0.523-1.065,1.158-1.02,1.491c0.045,0.332,0.285,0.924,1.38,1.161l10.165,2.217  c0.783,0.171,1.796,0.941,2.168,1.649l4.84,9.21c0.447,0.853,0.978,1.031,1.344,1.031c0.303,0,1.036-0.135,1.31-1.389l2.216-10.168  c0.169-0.781,0.941-1.794,1.65-2.167l9.209-4.84c0.993-0.521,1.065-1.156,1.021-1.488c-0.045-0.332-0.284-0.926-1.38-1.165  l-10.165-2.217c-0.783-0.171-1.796-0.941-2.167-1.649l-4.842-9.211c-0.448-0.851-0.978-1.029-1.344-1.029  c-0.303,0-1.036,0.136-1.31,1.39L50.727,59.06C50.558,59.84,49.786,60.853,49.077,61.227z" />
    <path
        d="M19.852,82.078c0,2.71,2.205,4.915,4.915,4.915s4.915-2.205,4.915-4.915s-2.205-4.915-4.915-4.915  S19.852,79.368,19.852,82.078z" />
    <path
        d="M21.352,54.979c0-4.577-3.724-8.301-8.301-8.301S4.75,50.402,4.75,54.979s3.724,8.301,8.301,8.301  S21.352,59.557,21.352,54.979z" />
    <path
        d="M58.964,22.171c3.34,0,6.057-2.717,6.057-6.056c0-3.341-2.717-6.059-6.057-6.059s-6.057,2.718-6.057,6.059  C52.907,19.454,55.624,22.171,58.964,22.171z" />
    <path
        d="M85.244,59.146c-1.866,0-3.384,1.519-3.384,3.385s1.518,3.385,3.384,3.385s3.385-1.519,3.385-3.385  S87.11,59.146,85.244,59.146z" />
</svg>